<mxfile host="Electron" modified="2023-08-08T02:46:57.995Z" agent="Mozilla/5.0 (Windows NT 10.0; Win64; x64) AppleWebKit/537.36 (KHTML, like Gecko) draw.io/21.6.5 Chrome/114.0.5735.243 Electron/25.3.1 Safari/537.36" etag="Az7dmckbejnUzPtILlya" version="21.6.5" type="device" pages="2">
  <diagram id="urLYwCpxc3I-mu-VGu9X" name="Diagrama de Classes">
    <mxGraphModel dx="607" dy="394" grid="1" gridSize="10" guides="1" tooltips="1" connect="1" arrows="1" fold="1" page="1" pageScale="1" pageWidth="827" pageHeight="1169" math="0" shadow="0">
      <root>
        <mxCell id="0" />
        <mxCell id="1" parent="0" />
        <mxCell id="UMkZh9DLS5UCQaDXhg-L-3" value="Logs" style="swimlane;fontStyle=1;align=center;verticalAlign=top;childLayout=stackLayout;horizontal=1;startSize=26;horizontalStack=0;resizeParent=1;resizeParentMax=0;resizeLast=0;collapsible=1;marginBottom=0;whiteSpace=wrap;html=1;" vertex="1" parent="1">
          <mxGeometry x="20" y="50" width="160" height="236" as="geometry" />
        </mxCell>
        <mxCell id="9us61tV4hIFLrRLHO55E-2" value="# id: int" style="text;strokeColor=none;fillColor=none;align=left;verticalAlign=middle;spacingLeft=4;spacingRight=4;overflow=hidden;points=[[0,0.5],[1,0.5]];portConstraint=eastwest;rotatable=0;whiteSpace=wrap;html=1;" vertex="1" parent="UMkZh9DLS5UCQaDXhg-L-3">
          <mxGeometry y="26" width="160" height="30" as="geometry" />
        </mxCell>
        <mxCell id="9us61tV4hIFLrRLHO55E-3" value="# user_id: int" style="text;strokeColor=none;fillColor=none;align=left;verticalAlign=middle;spacingLeft=4;spacingRight=4;overflow=hidden;points=[[0,0.5],[1,0.5]];portConstraint=eastwest;rotatable=0;whiteSpace=wrap;html=1;" vertex="1" parent="UMkZh9DLS5UCQaDXhg-L-3">
          <mxGeometry y="56" width="160" height="30" as="geometry" />
        </mxCell>
        <mxCell id="9us61tV4hIFLrRLHO55E-4" value="# screen: string" style="text;strokeColor=none;fillColor=none;align=left;verticalAlign=middle;spacingLeft=4;spacingRight=4;overflow=hidden;points=[[0,0.5],[1,0.5]];portConstraint=eastwest;rotatable=0;whiteSpace=wrap;html=1;" vertex="1" parent="UMkZh9DLS5UCQaDXhg-L-3">
          <mxGeometry y="86" width="160" height="30" as="geometry" />
        </mxCell>
        <mxCell id="UMkZh9DLS5UCQaDXhg-L-1" value="# description: string" style="text;strokeColor=none;fillColor=none;align=left;verticalAlign=middle;spacingLeft=4;spacingRight=4;overflow=hidden;points=[[0,0.5],[1,0.5]];portConstraint=eastwest;rotatable=0;whiteSpace=wrap;html=1;" vertex="1" parent="UMkZh9DLS5UCQaDXhg-L-3">
          <mxGeometry y="116" width="160" height="30" as="geometry" />
        </mxCell>
        <mxCell id="UMkZh9DLS5UCQaDXhg-L-2" value="# observation: string" style="text;strokeColor=none;fillColor=none;align=left;verticalAlign=middle;spacingLeft=4;spacingRight=4;overflow=hidden;points=[[0,0.5],[1,0.5]];portConstraint=eastwest;rotatable=0;whiteSpace=wrap;html=1;" vertex="1" parent="UMkZh9DLS5UCQaDXhg-L-3">
          <mxGeometry y="146" width="160" height="30" as="geometry" />
        </mxCell>
        <mxCell id="UMkZh9DLS5UCQaDXhg-L-5" value="" style="line;strokeWidth=1;fillColor=none;align=left;verticalAlign=middle;spacingTop=-1;spacingLeft=3;spacingRight=3;rotatable=0;labelPosition=right;points=[];portConstraint=eastwest;strokeColor=inherit;" vertex="1" parent="UMkZh9DLS5UCQaDXhg-L-3">
          <mxGeometry y="176" width="160" height="8" as="geometry" />
        </mxCell>
        <mxCell id="UMkZh9DLS5UCQaDXhg-L-6" value="+ getLog(): string" style="text;strokeColor=none;fillColor=none;align=left;verticalAlign=top;spacingLeft=4;spacingRight=4;overflow=hidden;rotatable=0;points=[[0,0.5],[1,0.5]];portConstraint=eastwest;whiteSpace=wrap;html=1;" vertex="1" parent="UMkZh9DLS5UCQaDXhg-L-3">
          <mxGeometry y="184" width="160" height="26" as="geometry" />
        </mxCell>
        <mxCell id="UMkZh9DLS5UCQaDXhg-L-7" value="+ setLog(): void" style="text;strokeColor=none;fillColor=none;align=left;verticalAlign=top;spacingLeft=4;spacingRight=4;overflow=hidden;rotatable=0;points=[[0,0.5],[1,0.5]];portConstraint=eastwest;whiteSpace=wrap;html=1;" vertex="1" parent="UMkZh9DLS5UCQaDXhg-L-3">
          <mxGeometry y="210" width="160" height="26" as="geometry" />
        </mxCell>
        <mxCell id="UMkZh9DLS5UCQaDXhg-L-8" value="Usuario" style="swimlane;fontStyle=1;align=center;verticalAlign=top;childLayout=stackLayout;horizontal=1;startSize=26;horizontalStack=0;resizeParent=1;resizeParentMax=0;resizeLast=0;collapsible=1;marginBottom=0;whiteSpace=wrap;html=1;" vertex="1" parent="1">
          <mxGeometry x="340" y="50" width="180" height="364" as="geometry" />
        </mxCell>
        <mxCell id="UMkZh9DLS5UCQaDXhg-L-9" value="# id: int" style="text;strokeColor=none;fillColor=none;align=left;verticalAlign=middle;spacingLeft=4;spacingRight=4;overflow=hidden;points=[[0,0.5],[1,0.5]];portConstraint=eastwest;rotatable=0;whiteSpace=wrap;html=1;" vertex="1" parent="UMkZh9DLS5UCQaDXhg-L-8">
          <mxGeometry y="26" width="180" height="30" as="geometry" />
        </mxCell>
        <mxCell id="UMkZh9DLS5UCQaDXhg-L-10" value="# name: string" style="text;strokeColor=none;fillColor=none;align=left;verticalAlign=middle;spacingLeft=4;spacingRight=4;overflow=hidden;points=[[0,0.5],[1,0.5]];portConstraint=eastwest;rotatable=0;whiteSpace=wrap;html=1;" vertex="1" parent="UMkZh9DLS5UCQaDXhg-L-8">
          <mxGeometry y="56" width="180" height="30" as="geometry" />
        </mxCell>
        <mxCell id="UMkZh9DLS5UCQaDXhg-L-11" value="# email: string" style="text;strokeColor=none;fillColor=none;align=left;verticalAlign=middle;spacingLeft=4;spacingRight=4;overflow=hidden;points=[[0,0.5],[1,0.5]];portConstraint=eastwest;rotatable=0;whiteSpace=wrap;html=1;" vertex="1" parent="UMkZh9DLS5UCQaDXhg-L-8">
          <mxGeometry y="86" width="180" height="30" as="geometry" />
        </mxCell>
        <mxCell id="UMkZh9DLS5UCQaDXhg-L-13" value="#&amp;nbsp;email_verified_at&lt;span style=&quot;background-color: initial;&quot;&gt;: DateTime&lt;/span&gt;" style="text;strokeColor=none;fillColor=none;align=left;verticalAlign=middle;spacingLeft=4;spacingRight=4;overflow=hidden;points=[[0,0.5],[1,0.5]];portConstraint=eastwest;rotatable=0;whiteSpace=wrap;html=1;" vertex="1" parent="UMkZh9DLS5UCQaDXhg-L-8">
          <mxGeometry y="116" width="180" height="30" as="geometry" />
        </mxCell>
        <mxCell id="UMkZh9DLS5UCQaDXhg-L-23" value="# status: int" style="text;strokeColor=none;fillColor=none;align=left;verticalAlign=middle;spacingLeft=4;spacingRight=4;overflow=hidden;points=[[0,0.5],[1,0.5]];portConstraint=eastwest;rotatable=0;whiteSpace=wrap;html=1;" vertex="1" parent="UMkZh9DLS5UCQaDXhg-L-8">
          <mxGeometry y="146" width="180" height="30" as="geometry" />
        </mxCell>
        <mxCell id="UMkZh9DLS5UCQaDXhg-L-22" value="#&amp;nbsp;password&lt;span style=&quot;background-color: initial;&quot;&gt;: string&lt;/span&gt;" style="text;strokeColor=none;fillColor=none;align=left;verticalAlign=middle;spacingLeft=4;spacingRight=4;overflow=hidden;points=[[0,0.5],[1,0.5]];portConstraint=eastwest;rotatable=0;whiteSpace=wrap;html=1;" vertex="1" parent="UMkZh9DLS5UCQaDXhg-L-8">
          <mxGeometry y="176" width="180" height="30" as="geometry" />
        </mxCell>
        <mxCell id="UMkZh9DLS5UCQaDXhg-L-21" value="# status: string" style="text;strokeColor=none;fillColor=none;align=left;verticalAlign=middle;spacingLeft=4;spacingRight=4;overflow=hidden;points=[[0,0.5],[1,0.5]];portConstraint=eastwest;rotatable=0;whiteSpace=wrap;html=1;" vertex="1" parent="UMkZh9DLS5UCQaDXhg-L-8">
          <mxGeometry y="206" width="180" height="30" as="geometry" />
        </mxCell>
        <mxCell id="UMkZh9DLS5UCQaDXhg-L-20" value="#&amp;nbsp;rememberToken&lt;span style=&quot;background-color: initial;&quot;&gt;: string&lt;/span&gt;" style="text;strokeColor=none;fillColor=none;align=left;verticalAlign=middle;spacingLeft=4;spacingRight=4;overflow=hidden;points=[[0,0.5],[1,0.5]];portConstraint=eastwest;rotatable=0;whiteSpace=wrap;html=1;" vertex="1" parent="UMkZh9DLS5UCQaDXhg-L-8">
          <mxGeometry y="236" width="180" height="30" as="geometry" />
        </mxCell>
        <mxCell id="UMkZh9DLS5UCQaDXhg-L-12" value="#&amp;nbsp;sub&lt;span style=&quot;background-color: initial;&quot;&gt;: string&lt;/span&gt;" style="text;strokeColor=none;fillColor=none;align=left;verticalAlign=middle;spacingLeft=4;spacingRight=4;overflow=hidden;points=[[0,0.5],[1,0.5]];portConstraint=eastwest;rotatable=0;whiteSpace=wrap;html=1;" vertex="1" parent="UMkZh9DLS5UCQaDXhg-L-8">
          <mxGeometry y="266" width="180" height="30" as="geometry" />
        </mxCell>
        <mxCell id="UMkZh9DLS5UCQaDXhg-L-18" value="# picture: string" style="text;strokeColor=none;fillColor=none;align=left;verticalAlign=middle;spacingLeft=4;spacingRight=4;overflow=hidden;points=[[0,0.5],[1,0.5]];portConstraint=eastwest;rotatable=0;whiteSpace=wrap;html=1;" vertex="1" parent="UMkZh9DLS5UCQaDXhg-L-8">
          <mxGeometry y="296" width="180" height="30" as="geometry" />
        </mxCell>
        <mxCell id="UMkZh9DLS5UCQaDXhg-L-19" value="#&amp;nbsp;profile&lt;span style=&quot;background-color: initial;&quot;&gt;: string&lt;/span&gt;" style="text;strokeColor=none;fillColor=none;align=left;verticalAlign=middle;spacingLeft=4;spacingRight=4;overflow=hidden;points=[[0,0.5],[1,0.5]];portConstraint=eastwest;rotatable=0;whiteSpace=wrap;html=1;" vertex="1" parent="UMkZh9DLS5UCQaDXhg-L-8">
          <mxGeometry y="326" width="180" height="30" as="geometry" />
        </mxCell>
        <mxCell id="UMkZh9DLS5UCQaDXhg-L-14" value="" style="line;strokeWidth=1;fillColor=none;align=left;verticalAlign=middle;spacingTop=-1;spacingLeft=3;spacingRight=3;rotatable=0;labelPosition=right;points=[];portConstraint=eastwest;strokeColor=inherit;" vertex="1" parent="UMkZh9DLS5UCQaDXhg-L-8">
          <mxGeometry y="356" width="180" height="8" as="geometry" />
        </mxCell>
        <mxCell id="UMkZh9DLS5UCQaDXhg-L-25" value="" style="endArrow=diamondThin;endFill=0;endSize=24;html=1;rounded=0;" edge="1" parent="1" source="UMkZh9DLS5UCQaDXhg-L-9" target="9us61tV4hIFLrRLHO55E-3">
          <mxGeometry width="160" relative="1" as="geometry">
            <mxPoint x="160" y="310" as="sourcePoint" />
            <mxPoint x="320" y="310" as="targetPoint" />
          </mxGeometry>
        </mxCell>
      </root>
    </mxGraphModel>
  </diagram>
  <diagram id="Ymjv9VD2L0zmQgDyvwfq" name="Diagrama de caso de uso">
    <mxGraphModel dx="1035" dy="673" grid="1" gridSize="10" guides="1" tooltips="1" connect="1" arrows="1" fold="1" page="1" pageScale="1" pageWidth="827" pageHeight="1169" math="0" shadow="0">
      <root>
        <mxCell id="0" />
        <mxCell id="1" parent="0" />
        <mxCell id="pwlGvzrBodaGY3UWJINS-1" value="Clientes" style="shape=umlActor;verticalLabelPosition=bottom;verticalAlign=top;html=1;outlineConnect=0;" vertex="1" parent="1">
          <mxGeometry x="50" y="420" width="30" height="60" as="geometry" />
        </mxCell>
        <mxCell id="pwlGvzrBodaGY3UWJINS-2" value="Hospede" style="shape=umlActor;verticalLabelPosition=bottom;verticalAlign=top;html=1;outlineConnect=0;" vertex="1" parent="1">
          <mxGeometry x="770" y="420" width="30" height="60" as="geometry" />
        </mxCell>
        <mxCell id="uoGbO2VkY-pvVVxCF-Li-2" value="Login" style="ellipse;whiteSpace=wrap;html=1;" vertex="1" parent="1">
          <mxGeometry x="385" y="10" width="120" height="80" as="geometry" />
        </mxCell>
        <mxCell id="uoGbO2VkY-pvVVxCF-Li-3" value="Historico de Reserva" style="ellipse;whiteSpace=wrap;html=1;" vertex="1" parent="1">
          <mxGeometry x="385" y="110" width="120" height="80" as="geometry" />
        </mxCell>
        <mxCell id="uoGbO2VkY-pvVVxCF-Li-4" value="Reservar" style="ellipse;whiteSpace=wrap;html=1;" vertex="1" parent="1">
          <mxGeometry x="385" y="210" width="120" height="80" as="geometry" />
        </mxCell>
        <mxCell id="uoGbO2VkY-pvVVxCF-Li-5" value="Cadastro de perfil" style="ellipse;whiteSpace=wrap;html=1;" vertex="1" parent="1">
          <mxGeometry x="385" y="504.5" width="120" height="80" as="geometry" />
        </mxCell>
        <mxCell id="uoGbO2VkY-pvVVxCF-Li-6" value="Cadastro de Usuário" style="ellipse;whiteSpace=wrap;html=1;" vertex="1" parent="1">
          <mxGeometry x="385" y="610" width="120" height="80" as="geometry" />
        </mxCell>
        <mxCell id="uoGbO2VkY-pvVVxCF-Li-7" value="Cadastro do Cliente" style="ellipse;whiteSpace=wrap;html=1;" vertex="1" parent="1">
          <mxGeometry x="385" y="720" width="120" height="80" as="geometry" />
        </mxCell>
        <mxCell id="uoGbO2VkY-pvVVxCF-Li-8" value="Check-In e Check-out" style="ellipse;whiteSpace=wrap;html=1;" vertex="1" parent="1">
          <mxGeometry x="380" y="300" width="130" height="80" as="geometry" />
        </mxCell>
        <mxCell id="uoGbO2VkY-pvVVxCF-Li-10" value="Mapa de Reserva" style="ellipse;whiteSpace=wrap;html=1;" vertex="1" parent="1">
          <mxGeometry x="385" y="400" width="120" height="80" as="geometry" />
        </mxCell>
        <mxCell id="uoGbO2VkY-pvVVxCF-Li-11" value="Pagamento" style="ellipse;whiteSpace=wrap;html=1;" vertex="1" parent="1">
          <mxGeometry x="385" y="830" width="120" height="80" as="geometry" />
        </mxCell>
        <mxCell id="uoGbO2VkY-pvVVxCF-Li-17" value="Consulta de Agenda" style="ellipse;whiteSpace=wrap;html=1;" vertex="1" parent="1">
          <mxGeometry x="570" y="370" width="110" height="60" as="geometry" />
        </mxCell>
        <mxCell id="uoGbO2VkY-pvVVxCF-Li-20" value="&amp;lt;&amp;lt;include&amp;gt;&amp;gt;" style="html=1;verticalAlign=bottom;labelBackgroundColor=none;endArrow=open;endFill=0;dashed=1;rounded=0;entryX=0;entryY=0.5;entryDx=0;entryDy=0;exitX=1.017;exitY=0.6;exitDx=0;exitDy=0;exitPerimeter=0;" edge="1" parent="1" source="uoGbO2VkY-pvVVxCF-Li-4" target="uoGbO2VkY-pvVVxCF-Li-17">
          <mxGeometry width="160" relative="1" as="geometry">
            <mxPoint x="380" y="260" as="sourcePoint" />
            <mxPoint x="540" y="260" as="targetPoint" />
          </mxGeometry>
        </mxCell>
        <mxCell id="uoGbO2VkY-pvVVxCF-Li-26" value="&amp;lt;&amp;lt;include&amp;gt;&amp;gt;" style="html=1;verticalAlign=bottom;labelBackgroundColor=none;endArrow=open;endFill=0;dashed=1;rounded=0;entryX=0;entryY=0.5;entryDx=0;entryDy=0;" edge="1" parent="1" source="uoGbO2VkY-pvVVxCF-Li-8" target="uoGbO2VkY-pvVVxCF-Li-17">
          <mxGeometry width="160" relative="1" as="geometry">
            <mxPoint x="422" y="310" as="sourcePoint" />
            <mxPoint x="610" y="482" as="targetPoint" />
          </mxGeometry>
        </mxCell>
        <mxCell id="uoGbO2VkY-pvVVxCF-Li-29" value="" style="endArrow=none;html=1;rounded=0;entryX=0;entryY=0.5;entryDx=0;entryDy=0;" edge="1" parent="1" source="pwlGvzrBodaGY3UWJINS-1" target="uoGbO2VkY-pvVVxCF-Li-2">
          <mxGeometry width="50" height="50" relative="1" as="geometry">
            <mxPoint x="170" y="420" as="sourcePoint" />
            <mxPoint x="220" y="370" as="targetPoint" />
          </mxGeometry>
        </mxCell>
        <mxCell id="uoGbO2VkY-pvVVxCF-Li-30" value="" style="endArrow=none;html=1;rounded=0;entryX=0;entryY=0.5;entryDx=0;entryDy=0;" edge="1" parent="1" source="pwlGvzrBodaGY3UWJINS-1" target="uoGbO2VkY-pvVVxCF-Li-3">
          <mxGeometry width="50" height="50" relative="1" as="geometry">
            <mxPoint x="90" y="441" as="sourcePoint" />
            <mxPoint x="395" y="60" as="targetPoint" />
          </mxGeometry>
        </mxCell>
        <mxCell id="uoGbO2VkY-pvVVxCF-Li-31" value="" style="endArrow=none;html=1;rounded=0;entryX=-0.025;entryY=0.588;entryDx=0;entryDy=0;entryPerimeter=0;" edge="1" parent="1" source="pwlGvzrBodaGY3UWJINS-1" target="uoGbO2VkY-pvVVxCF-Li-4">
          <mxGeometry width="50" height="50" relative="1" as="geometry">
            <mxPoint x="90" y="446" as="sourcePoint" />
            <mxPoint x="395" y="160" as="targetPoint" />
          </mxGeometry>
        </mxCell>
        <mxCell id="uoGbO2VkY-pvVVxCF-Li-32" value="" style="endArrow=none;html=1;rounded=0;entryX=0;entryY=0.5;entryDx=0;entryDy=0;" edge="1" parent="1" source="pwlGvzrBodaGY3UWJINS-1" target="uoGbO2VkY-pvVVxCF-Li-8">
          <mxGeometry width="50" height="50" relative="1" as="geometry">
            <mxPoint x="90" y="474" as="sourcePoint" />
            <mxPoint x="392" y="290" as="targetPoint" />
          </mxGeometry>
        </mxCell>
        <mxCell id="uoGbO2VkY-pvVVxCF-Li-34" value="" style="endArrow=none;html=1;rounded=0;entryX=0;entryY=0.5;entryDx=0;entryDy=0;" edge="1" parent="1" source="pwlGvzrBodaGY3UWJINS-1" target="uoGbO2VkY-pvVVxCF-Li-5">
          <mxGeometry width="50" height="50" relative="1" as="geometry">
            <mxPoint x="110" y="490" as="sourcePoint" />
            <mxPoint x="410" y="480" as="targetPoint" />
          </mxGeometry>
        </mxCell>
        <mxCell id="uoGbO2VkY-pvVVxCF-Li-35" value="" style="endArrow=none;html=1;rounded=0;entryX=0;entryY=0.5;entryDx=0;entryDy=0;" edge="1" parent="1" source="pwlGvzrBodaGY3UWJINS-1" target="uoGbO2VkY-pvVVxCF-Li-6">
          <mxGeometry width="50" height="50" relative="1" as="geometry">
            <mxPoint x="80" y="510" as="sourcePoint" />
            <mxPoint x="385" y="601" as="targetPoint" />
          </mxGeometry>
        </mxCell>
        <mxCell id="uoGbO2VkY-pvVVxCF-Li-36" value="" style="endArrow=none;html=1;rounded=0;entryX=0;entryY=0.5;entryDx=0;entryDy=0;" edge="1" parent="1" source="pwlGvzrBodaGY3UWJINS-1" target="uoGbO2VkY-pvVVxCF-Li-7">
          <mxGeometry width="50" height="50" relative="1" as="geometry">
            <mxPoint x="80" y="510" as="sourcePoint" />
            <mxPoint x="385" y="701" as="targetPoint" />
          </mxGeometry>
        </mxCell>
        <mxCell id="uoGbO2VkY-pvVVxCF-Li-38" value="" style="endArrow=none;html=1;rounded=0;exitX=1;exitY=0.5;exitDx=0;exitDy=0;" edge="1" parent="1" source="uoGbO2VkY-pvVVxCF-Li-2" target="pwlGvzrBodaGY3UWJINS-2">
          <mxGeometry width="50" height="50" relative="1" as="geometry">
            <mxPoint x="370" y="380" as="sourcePoint" />
            <mxPoint x="675" y="94" as="targetPoint" />
          </mxGeometry>
        </mxCell>
        <mxCell id="uoGbO2VkY-pvVVxCF-Li-39" value="" style="endArrow=none;html=1;rounded=0;exitX=1;exitY=0.5;exitDx=0;exitDy=0;" edge="1" parent="1" source="uoGbO2VkY-pvVVxCF-Li-3" target="pwlGvzrBodaGY3UWJINS-2">
          <mxGeometry width="50" height="50" relative="1" as="geometry">
            <mxPoint x="515" y="60" as="sourcePoint" />
            <mxPoint x="750" y="98" as="targetPoint" />
          </mxGeometry>
        </mxCell>
        <mxCell id="uoGbO2VkY-pvVVxCF-Li-40" value="" style="endArrow=none;html=1;rounded=0;exitX=1;exitY=0.5;exitDx=0;exitDy=0;" edge="1" parent="1" source="uoGbO2VkY-pvVVxCF-Li-4" target="pwlGvzrBodaGY3UWJINS-2">
          <mxGeometry width="50" height="50" relative="1" as="geometry">
            <mxPoint x="520" y="176" as="sourcePoint" />
            <mxPoint x="755" y="120" as="targetPoint" />
          </mxGeometry>
        </mxCell>
        <mxCell id="uoGbO2VkY-pvVVxCF-Li-44" value="" style="endArrow=none;html=1;rounded=0;entryX=0;entryY=0.5;entryDx=0;entryDy=0;" edge="1" parent="1" source="pwlGvzrBodaGY3UWJINS-1" target="uoGbO2VkY-pvVVxCF-Li-11">
          <mxGeometry width="50" height="50" relative="1" as="geometry">
            <mxPoint x="50" y="520" as="sourcePoint" />
            <mxPoint x="355" y="815" as="targetPoint" />
          </mxGeometry>
        </mxCell>
        <mxCell id="uoGbO2VkY-pvVVxCF-Li-46" value="" style="endArrow=none;html=1;rounded=0;entryX=0;entryY=0.5;entryDx=0;entryDy=0;" edge="1" parent="1" source="pwlGvzrBodaGY3UWJINS-1" target="uoGbO2VkY-pvVVxCF-Li-10">
          <mxGeometry width="50" height="50" relative="1" as="geometry">
            <mxPoint x="90" y="455" as="sourcePoint" />
            <mxPoint x="390" y="350" as="targetPoint" />
          </mxGeometry>
        </mxCell>
        <mxCell id="uoGbO2VkY-pvVVxCF-Li-47" value="&amp;lt;&amp;lt;include&amp;gt;&amp;gt;" style="html=1;verticalAlign=bottom;labelBackgroundColor=none;endArrow=open;endFill=0;dashed=1;rounded=0;entryX=0;entryY=0.65;entryDx=0;entryDy=0;exitX=1;exitY=0.5;exitDx=0;exitDy=0;entryPerimeter=0;" edge="1" parent="1" source="uoGbO2VkY-pvVVxCF-Li-10" target="uoGbO2VkY-pvVVxCF-Li-17">
          <mxGeometry width="160" relative="1" as="geometry">
            <mxPoint x="560" y="460" as="sourcePoint" />
            <mxPoint x="634" y="495" as="targetPoint" />
          </mxGeometry>
        </mxCell>
        <mxCell id="uoGbO2VkY-pvVVxCF-Li-48" value="CRUD" style="ellipse;whiteSpace=wrap;html=1;" vertex="1" parent="1">
          <mxGeometry x="650" y="660" width="110" height="60" as="geometry" />
        </mxCell>
        <mxCell id="uoGbO2VkY-pvVVxCF-Li-49" value="&amp;lt;&amp;lt;extend&amp;gt;&amp;gt;" style="html=1;verticalAlign=bottom;labelBackgroundColor=none;endArrow=open;endFill=0;dashed=1;rounded=0;exitX=1;exitY=0.5;exitDx=0;exitDy=0;entryX=0;entryY=0.5;entryDx=0;entryDy=0;" edge="1" parent="1" source="uoGbO2VkY-pvVVxCF-Li-5" target="uoGbO2VkY-pvVVxCF-Li-48">
          <mxGeometry width="160" relative="1" as="geometry">
            <mxPoint x="520" y="543.91" as="sourcePoint" />
            <mxPoint x="680" y="543.91" as="targetPoint" />
          </mxGeometry>
        </mxCell>
        <mxCell id="uoGbO2VkY-pvVVxCF-Li-50" value="&amp;lt;&amp;lt;extend&amp;gt;&amp;gt;" style="html=1;verticalAlign=bottom;labelBackgroundColor=none;endArrow=open;endFill=0;dashed=1;rounded=0;entryX=0;entryY=0.5;entryDx=0;entryDy=0;exitX=1;exitY=0.5;exitDx=0;exitDy=0;" edge="1" parent="1" source="uoGbO2VkY-pvVVxCF-Li-6" target="uoGbO2VkY-pvVVxCF-Li-48">
          <mxGeometry width="160" relative="1" as="geometry">
            <mxPoint x="520" y="650" as="sourcePoint" />
            <mxPoint x="655" y="795" as="targetPoint" />
          </mxGeometry>
        </mxCell>
        <mxCell id="uoGbO2VkY-pvVVxCF-Li-51" value="&amp;lt;&amp;lt;extend&amp;gt;&amp;gt;" style="html=1;verticalAlign=bottom;labelBackgroundColor=none;endArrow=open;endFill=0;dashed=1;rounded=0;entryX=0;entryY=0.5;entryDx=0;entryDy=0;exitX=1;exitY=0.5;exitDx=0;exitDy=0;" edge="1" parent="1" source="uoGbO2VkY-pvVVxCF-Li-7" target="uoGbO2VkY-pvVVxCF-Li-48">
          <mxGeometry width="160" relative="1" as="geometry">
            <mxPoint x="552.5" y="780" as="sourcePoint" />
            <mxPoint x="697.5" y="820" as="targetPoint" />
          </mxGeometry>
        </mxCell>
        <mxCell id="uoGbO2VkY-pvVVxCF-Li-52" value="&amp;lt;&amp;lt;extend&amp;gt;&amp;gt;" style="html=1;verticalAlign=bottom;labelBackgroundColor=none;endArrow=open;endFill=0;dashed=1;rounded=0;exitX=1;exitY=0.5;exitDx=0;exitDy=0;" edge="1" parent="1" source="uoGbO2VkY-pvVVxCF-Li-11">
          <mxGeometry width="160" relative="1" as="geometry">
            <mxPoint x="530" y="850" as="sourcePoint" />
            <mxPoint x="650" y="690" as="targetPoint" />
          </mxGeometry>
        </mxCell>
      </root>
    </mxGraphModel>
  </diagram>
</mxfile>
